<?xml version="1.0" encoding="UTF-8" standalone="no"?>
<svg
   xml:space="preserve"
   width="1024"
   height="1024"
   viewBox="0 0 270.933 270.933"
   version="1.1"
   id="svg27"
   sodipodi:docname="logo.svg"
   inkscape:version="1.4.3 (0d15f75042, 2025-12-25)"
   inkscape:export-filename="logo.png"
   inkscape:export-xdpi="96"
   inkscape:export-ydpi="96"
   xmlns:inkscape="http://www.inkscape.org/namespaces/inkscape"
   xmlns:sodipodi="http://sodipodi.sourceforge.net/DTD/sodipodi-0.dtd"
   xmlns:xlink="http://www.w3.org/1999/xlink"
   xmlns="http://www.w3.org/2000/svg"
   xmlns:svg="http://www.w3.org/2000/svg"><sodipodi:namedview
     id="namedview27"
     pagecolor="#ffffff"
     bordercolor="#000000"
     borderopacity="0.25"
     inkscape:showpageshadow="2"
     inkscape:pageopacity="0.0"
     inkscape:pagecheckerboard="0"
     inkscape:deskcolor="#d1d1d1"
     inkscape:zoom="0.91796875"
     inkscape:cx="462.97872"
     inkscape:cy="365.48085"
     inkscape:window-width="1951"
     inkscape:window-height="1370"
     inkscape:window-x="26"
     inkscape:window-y="23"
     inkscape:window-maximized="0"
     inkscape:current-layer="svg27" /><defs
     id="defs2"><linearGradient
       id="swatch35"
       inkscape:swatch="solid"><stop
         style="stop-color:#2b1706;stop-opacity:1;"
         offset="0"
         id="stop35" /></linearGradient><linearGradient
       id="swatch32"
       inkscape:swatch="solid"><stop
         style="stop-color:#301909;stop-opacity:1;"
         offset="0"
         id="stop32" /></linearGradient><linearGradient
       id="swatch27"
       inkscape:swatch="solid"><stop
         style="stop-color:#40250a;stop-opacity:1;"
         offset="0"
         id="stop27" /></linearGradient><filter
       id="a"
       width="1.0714493"
       height="1.1103432"
       x="-0.035724667"
       y="-0.055172067"
       style="color-interpolation-filters:sRGB"><feComposite
         result="comp2"
         id="feComposite2" /></filter><linearGradient
       inkscape:collect="always"
       xlink:href="#swatch27"
       id="linearGradient27"
       x1="105.86704"
       y1="115.666"
       x2="108.68496"
       y2="115.666"
       gradientUnits="userSpaceOnUse" /><linearGradient
       inkscape:collect="always"
       xlink:href="#swatch27"
       id="linearGradient28"
       x1="107.24052"
       y1="116.3665"
       x2="108.99448"
       y2="116.3665"
       gradientUnits="userSpaceOnUse" /><linearGradient
       inkscape:collect="always"
       xlink:href="#swatch27"
       id="linearGradient29"
       x1="111.23187"
       y1="118.9395"
       x2="114.08513"
       y2="118.9395"
       gradientUnits="userSpaceOnUse" /><linearGradient
       inkscape:collect="always"
       xlink:href="#swatch27"
       id="linearGradient30"
       x1="113.13102"
       y1="119.635"
       x2="114.41998"
       y2="119.635"
       gradientUnits="userSpaceOnUse" /><linearGradient
       inkscape:collect="always"
       xlink:href="#swatch27"
       id="linearGradient31"
       x1="111.12406"
       y1="121.0335"
       x2="112.14194"
       y2="121.0335"
       gradientUnits="userSpaceOnUse" /><linearGradient
       inkscape:collect="always"
       xlink:href="#swatch32"
       id="linearGradient32"
       x1="114.26182"
       y1="119.664"
       x2="117.71618"
       y2="119.664"
       gradientUnits="userSpaceOnUse" /><linearGradient
       inkscape:collect="always"
       xlink:href="#swatch32"
       id="linearGradient33"
       x1="119.70443"
       y1="116.1405"
       x2="122.90057"
       y2="116.1405"
       gradientUnits="userSpaceOnUse" /><linearGradient
       inkscape:collect="always"
       xlink:href="#swatch32"
       id="linearGradient34"
       x1="114.27826"
       y1="118.993"
       x2="117.23974"
       y2="118.993"
       gradientUnits="userSpaceOnUse" /><linearGradient
       inkscape:collect="always"
       xlink:href="#swatch35"
       id="linearGradient35"
       x1="112.3975"
       y1="116.11799"
       x2="119.8205"
       y2="116.11799"
       gradientUnits="userSpaceOnUse" /><linearGradient
       inkscape:collect="always"
       xlink:href="#swatch35"
       id="linearGradient36"
       x1="108.9335"
       y1="116.11799"
       x2="116.3565"
       y2="116.11799"
       gradientUnits="userSpaceOnUse" /><linearGradient
       inkscape:collect="always"
       xlink:href="#swatch35"
       id="linearGradient37"
       x1="141.18276"
       y1="96.800454"
       x2="150.96724"
       y2="96.800454"
       gradientUnits="userSpaceOnUse" /><linearGradient
       inkscape:collect="always"
       xlink:href="#swatch35"
       id="linearGradient38"
       x1="105.09825"
       y1="115.11799"
       x2="123.65575"
       y2="115.11799"
       gradientUnits="userSpaceOnUse" /><filter
       style="color-interpolation-filters:sRGB;"
       inkscape:label="Drop Shadow"
       id="filter69"
       x="-0.097229949"
       y="-0.11124222"
       width="1.1944598"
       height="1.2224835"><feFlood
         result="flood"
         in="SourceGraphic"
         flood-opacity="0.298039"
         flood-color="rgb(0,0,0)"
         id="feFlood68" /><feGaussianBlur
         result="blur"
         in="SourceGraphic"
         stdDeviation="5.095541"
         id="feGaussianBlur68" /><feOffset
         result="offset"
         in="blur"
         dx="0.000000"
         dy="0.000000"
         id="feOffset68" /><feComposite
         result="comp1"
         operator="in"
         in="flood"
         in2="offset"
         id="feComposite68" /><feComposite
         result="comp2"
         operator="over"
         in="SourceGraphic"
         in2="comp1"
         id="feComposite69" /></filter></defs><g
     id="g68"
     style="filter:url(#filter69)"><path
       d="m 123.038,110.618 -8.66,5 -8.661,-5 8.66,-5 z"
       style="fill:#eec478;fill-opacity:1;stroke:none;stroke-width:0.495001;stroke-linecap:round;stroke-linejoin:round;stroke-dasharray:none;stroke-opacity:1;paint-order:normal;filter:url(#a)"
       id="path2"
       transform="matrix(11.47932,0,0,11.47932,-1177.506,-1186.007)" /><path
       d="m 105.717,119.618 8.66,5 v -9 l -8.66,-5 z"
       style="fill:#6a4213;fill-opacity:1;stroke:none;stroke-width:0.495;stroke-linecap:round;stroke-linejoin:round;stroke-dasharray:none;stroke-opacity:1;paint-order:normal;filter:url(#a)"
       id="path3"
       transform="matrix(11.47932,0,0,11.47932,-1177.506,-1186.007)" /><path
       d="m 114.377,124.618 8.66,-5 v -9 l -8.66,5 z"
       style="fill:#533512;fill-opacity:1;stroke:none;stroke-width:0.495001;stroke-linecap:round;stroke-linejoin:round;stroke-dasharray:none;stroke-opacity:1;paint-order:normal;filter:url(#a)"
       id="path4"
       transform="matrix(11.47932,0,0,11.47932,-1177.506,-1186.007)" /><path
       d="m 105.717,110.618 v 9 l 8.66,5 8.66,-5 v -9 l -8.66,-5 z"
       style="fill:none;fill-opacity:1;stroke:url(#linearGradient38);stroke-width:0.495001;stroke-linecap:round;stroke-linejoin:round;stroke-dasharray:none;stroke-opacity:1;paint-order:normal;filter:url(#a)"
       id="path5"
       transform="matrix(11.47932,0,0,11.47932,-1177.506,-1186.007)" /><path
       d="m 109.181,121.618 v -9 l 5.196,-3 1.732,1 -5.196,3 v 9 z"
       style="fill:#dd2b2b;fill-opacity:1;stroke:url(#linearGradient36);stroke-width:0.495001;stroke-linecap:round;stroke-linejoin:round;stroke-dasharray:none;stroke-opacity:1;paint-order:normal;filter:url(#a)"
       id="path6"
       transform="matrix(11.47932,0,0,11.47932,-1177.506,-1186.007)" /><path
       d="m 119.573,121.618 v -9 l -5.196,-3 -1.732,1 5.196,3 v 9 z"
       style="fill:#dd2b2b;fill-opacity:1;stroke:url(#linearGradient35);stroke-width:0.495001;stroke-linecap:round;stroke-linejoin:round;stroke-dasharray:none;stroke-opacity:1;paint-order:normal;filter:url(#a)"
       id="path7"
       transform="matrix(11.47932,0,0,11.47932,-1177.506,-1186.007)" /><g
       transform="matrix(14.316204,0,0,14.316204,-1955.7809,-1316.481)"
       id="g10"
       style="stroke:url(#linearGradient37);stroke-opacity:1;filter:url(#a)"><path
         d="m 146.058,98.298 -2.55,-0.024 c -1.17,0.031 -1.999,-0.764 -1.999,-1.654 0.033,-0.955 0.587,-1.618 1.415,-1.632 1.29,-0.014 2.547,1.657 3.145,2.672 1.023,-1.517 2.074,-2.681 3.158,-2.66 0.797,0.02 1.327,0.563 1.414,1.526 0.002,1.161 -0.778,1.657 -1.894,1.719 z"
         style="fill:#ed4a32;fill-opacity:1;stroke:url(#linearGradient37);stroke-width:0.4;stroke-linecap:round;stroke-linejoin:round;stroke-dasharray:none;stroke-opacity:1;paint-order:normal"
         id="path8" /><path
         d="m 145.06,98.11 c -0.792,-0.581 -1.717,-1.21 -2.335,-1.21 -0.389,0.002 -0.514,0.155 -0.622,0.497 -0.071,-0.254 -0.025,-0.504 0.172,-0.675 0.288,-0.282 0.776,-0.158 1.003,-0.073 0.637,0.257 1.185,0.622 1.777,0.976 z"
         style="fill:#311302;fill-opacity:1;stroke:url(#linearGradient37);stroke-width:0.1;stroke-linecap:round;stroke-linejoin:round;stroke-dasharray:none;stroke-opacity:1;paint-order:normal"
         id="path9" /><rect
         width="1.637"
         height="1.859"
         x="145.257"
         y="96.753998"
         ry="0.64899999"
         style="fill:#ed4a32;fill-opacity:1;stroke:url(#linearGradient37);stroke-width:0.4;stroke-linecap:round;stroke-linejoin:round;stroke-dasharray:none;stroke-opacity:1;paint-order:normal"
         id="rect9" /><path
         d="m 147.073,98.12 c 0.794,-0.582 1.718,-1.21 2.336,-1.21 0.389,0.001 0.515,0.154 0.623,0.496 0.07,-0.254 0.024,-0.504 -0.173,-0.675 -0.287,-0.282 -0.775,-0.158 -1.002,-0.073 -0.637,0.257 -1.186,0.622 -1.778,0.976 z"
         style="fill:#311302;fill-opacity:1;stroke:url(#linearGradient37);stroke-width:0.1;stroke-linecap:round;stroke-linejoin:round;stroke-dasharray:none;stroke-opacity:1;paint-order:normal"
         id="path10" /></g><path
       d="m 106.025,119.51 0.066,-0.625 0.12,-1.111 0.106,-1.05 0.08,-0.843 0.02,-0.595 -0.089,-0.705 c 0,0 -0.225,-0.825 -0.225,-0.855 0,-0.03 -0.14,-0.534 -0.14,-0.534 l -0.002,6.283 z m 0.535,-8.405 0.239,0.137 -0.052,0.694 0.02,0.734 0.194,1.058 0.21,0.826 0.117,0.564 0.036,0.502 0.234,-0.343 0.295,-0.545 0.17,-0.515 0.155,-0.79 0.109,-0.74 0.01,-0.58 0.294,0.17 -0.025,0.681 -0.063,0.792 -0.077,0.508 -0.108,0.273 -0.334,0.73 -0.391,0.832 -0.217,0.645 -0.154,1.07 0.04,0.842 0.045,0.644 -0.04,0.933 -0.488,-0.282 0.052,-0.665 -0.017,-0.797 -0.018,-0.576 0.049,-0.363 0.108,-0.926 0.063,-0.825 -0.085,-0.762 -0.12,-0.721 -0.2,-0.76 -0.14,-0.6 -0.054,-0.45 0.029,-0.675 z"
       style="fill:url(#linearGradient27);fill-opacity:1;stroke:none;stroke-width:0.472775;stroke-linecap:round;stroke-linejoin:round;stroke-dasharray:none;stroke-opacity:1;paint-order:normal;filter:url(#a)"
       id="path11"
       transform="matrix(11.47932,0,0,11.47932,-1177.506,-1186.007)" /><path
       d="m 107.317,111.541 0.486,0.281 -0.019,1.286 -0.31,1.016 -0.175,-0.655 0.014,-0.953 z m 1.618,2.912 v 0.74 l -0.256,0.567 -0.357,0.956 -0.04,0.743 -0.114,0.696 -0.145,0.746 -0.007,0.552 0.024,1.22 -0.364,-0.21 0.026,-1.024 0.043,-0.636 0.048,-0.803 0.106,-1.016 0.065,-0.424 0.243,-0.617 0.257,-0.491 0.225,-0.465 z m -0.009,2.075 0.01,4.664 -0.275,-0.16 0.052,-0.389 -0.025,-0.581 -0.08,-0.631 -0.015,-0.721 0.12,-0.686 0.034,-0.467 0.097,-0.762 z"
       style="fill:url(#linearGradient28);fill-opacity:1;stroke:none;stroke-width:0.472775;stroke-linecap:round;stroke-linejoin:round;stroke-dasharray:none;stroke-opacity:1;paint-order:normal;filter:url(#a)"
       id="path12"
       transform="matrix(11.47932,0,0,11.47932,-1177.506,-1186.007)" /><path
       d="m 111.555,122.702 0.44,0.254 0.096,-0.504 0.017,-0.292 -0.034,-0.733 -0.32,-0.733 -0.162,-0.855 -0.432,-0.728 -0.002,0.663 0.08,0.418 0.23,0.786 0.117,0.656 z"
       style="fill:url(#linearGradient31);fill-opacity:1;stroke:none;stroke-width:0.435037;stroke-linecap:round;stroke-linejoin:round;stroke-dasharray:none;stroke-opacity:1;paint-order:normal;filter:url(#a)"
       id="path13"
       transform="matrix(11.47932,0,0,11.47932,-1177.506,-1186.007)" /><path
       d="m 112.374,123.175 0.412,0.238 0.203,-0.773 0.1,-0.51 -0.018,-0.607 -0.175,-0.848 -0.282,-0.86 -0.458,-0.89 -0.344,-0.617 -0.282,-0.894 -0.141,-0.522 -0.062,0.787 0.052,0.449 0.275,0.556 0.34,0.552 0.18,0.887 0.333,0.77 0.055,0.415 0.045,1.02 z m 1.004,0.58 0.376,0.218 0.153,-1.337 0.083,-0.883 -0.062,-1.055 -0.175,-0.97 -0.214,-1.052 -0.268,-0.771 -0.24,-0.756 -0.111,-0.36 -0.052,-1.056 -0.072,-1.028 -0.37,-0.213 0.03,1.023 0.092,1.343 0.155,0.736 0.31,0.89 0.22,0.818 0.19,0.786 0.161,0.767 0.08,0.396 -0.032,0.721 -0.1,0.806 z m -1.966,-9.849 0.405,0.234 0.04,1.7 0.107,0.638 0.43,1.293 0.313,1.227 -0.392,-0.594 -0.258,-0.564 -0.306,-1.048 -0.251,-1.2 -0.073,-0.687 z"
       style="fill:url(#linearGradient29);fill-opacity:1;stroke:none;stroke-width:0.435037;stroke-linecap:round;stroke-linejoin:round;stroke-dasharray:none;stroke-opacity:1;paint-order:normal;filter:url(#a)"
       id="path14"
       transform="matrix(11.47932,0,0,11.47932,-1177.506,-1186.007)" /><path
       d="m 114.377,124.347 v -8.73 l -0.409,-0.235 0.187,2.726 -0.347,-0.951 -0.2,-0.768 -0.144,-0.943 v -0.356 l -0.29,-0.167 0.027,0.887 0.058,0.737 0.22,0.667 0.32,0.86 0.186,0.656 0.166,1.159 -0.006,2.745 0.057,1.124 z"
       style="fill:url(#linearGradient30);fill-opacity:1;stroke:none;stroke-width:0.435037;stroke-linecap:round;stroke-linejoin:round;stroke-dasharray:none;stroke-opacity:1;paint-order:normal;filter:url(#a)"
       id="path15"
       transform="matrix(11.47932,0,0,11.47932,-1177.506,-1186.007)" /><path
       d="m 115.017,123.963 0.567,-0.328 -0.01,-0.775 -0.106,-0.912 -0.039,-1.014 0.024,-0.38 0.526,-1.443 c 0,0 0.457,-0.852 0.462,-0.89 0.006,-0.038 0.39,-1.194 0.39,-1.194 l 0.17,-1.047 0.112,-1.107 0.028,-0.85 -0.302,0.174 -0.028,0.415 -0.083,0.972 -0.102,0.803 -0.204,0.835 -0.08,-2.738 -0.331,0.19 0.09,3.308 -0.424,0.635 -0.19,0.602 -0.17,0.69 -0.277,0.743 -0.078,0.77 -0.01,1.254 -0.025,0.575 z m -0.64,-6.022 0.124,-0.397 0.154,-0.616 0.028,-1.486 -0.306,0.176 z"
       style="fill:url(#linearGradient34);fill-opacity:1;stroke:none;stroke-width:0.435037;stroke-linecap:round;stroke-linejoin:round;stroke-dasharray:none;stroke-opacity:1;paint-order:normal;filter:url(#a)"
       id="path16"
       transform="matrix(11.47932,0,0,11.47932,-1177.506,-1186.007)" /><path
       d="m 115.451,114.998 -0.005,2.441 -0.073,0.472 -0.219,0.521 -0.263,0.69 -0.131,0.667 -0.088,0.526 -0.152,0.646 -0.002,0.762 0.024,1.365 0.05,1.12 -0.215,0.122 0.001,-5.344 0.3,-0.765 0.356,-0.874 0.072,-0.618 -0.029,-1.194 -0.014,-0.312 z m 0.421,6.452 0.124,-0.41 0.244,-0.66 0.1,-0.372 -0.038,-0.591 -0.172,0.487 -0.182,0.633 -0.083,0.357 z m 0.788,-1.005 0.004,1.059 -0.086,0.464 -0.127,0.61 -0.014,0.566 -0.286,0.164 -0.065,-1.048 0.296,-0.956 z m 0.258,2.42 0.335,-0.192 0.006,-0.402 0.103,-0.671 0.03,-0.522 -0.13,-0.821 -0.062,-0.69 0.055,-0.895 0.234,-0.982 0.112,-0.619 -0.004,-1.872 -0.08,0.726 -0.059,0.491 -0.192,0.672 -0.379,1.224 -0.134,0.633 0.02,0.525 0.166,0.76 0.072,0.764 -0.052,0.947 z"
       style="fill:url(#linearGradient32);fill-opacity:1;stroke:none;stroke-width:0.435037;stroke-linecap:round;stroke-linejoin:round;stroke-dasharray:none;stroke-opacity:1;paint-order:normal;filter:url(#a)"
       id="path17"
       transform="matrix(11.47932,0,0,11.47932,-1177.506,-1186.007)" /><path
       d="m 119.821,121.191 0.513,-0.296 0.016,-0.274 -0.096,-0.413 -0.434,-1.933 z m 0.938,-0.542 0.44,-0.254 v -0.694 l -0.062,-0.708 -0.182,-0.535 -0.377,-0.563 -0.2,-1.396 0.312,-1.058 0.024,-0.362 -0.058,-0.42 -0.252,0.696 -0.282,1.006 -0.005,0.61 0.149,1.054 0.34,0.877 0.112,0.464 z m 1.03,-0.594 0.382,-0.219 0.01,-0.87 -0.1,-0.488 -0.256,-0.81 -0.377,-0.807 -0.46,-0.814 -0.005,0.684 0.124,0.464 0.435,1.003 0.096,0.256 -0.005,1.058 0.066,0.31 z m 0.034,-8.735 0.395,-0.23 10e-4,1.054 0.024,0.678 0.094,1.213 0.181,0.667 0.274,0.41 v 0.61 l -0.467,-0.68 -0.217,-0.529 -0.193,-0.868 -0.088,-0.967 z m -0.873,0.503 0.35,-0.202 0.017,0.778 0.053,1.174 0.182,0.923 0.275,0.813 0.445,0.867 0.334,0.534 0.188,0.587 v 2.18 l -0.105,0.06 -0.053,-0.524 -0.064,-0.456 -0.164,-0.656 -0.13,-0.89 -0.275,-0.59 -0.603,-0.856 -0.317,-0.874 -0.111,-0.868 -0.012,-0.962 z m -0.92,0.532 0.401,-0.232 -0.022,0.833 -0.124,0.9 -0.17,0.88 -0.304,1.183 0.006,-1.526 0.199,-0.992 z"
       style="fill:url(#linearGradient33);fill-opacity:1;stroke:none;stroke-width:0.483418;stroke-linecap:round;stroke-linejoin:round;stroke-dasharray:none;stroke-opacity:1;paint-order:normal;filter:url(#a)"
       id="path18"
       transform="matrix(11.47932,0,0,11.47932,-1177.506,-1186.007)" /><path
       d="m 111.486,113.572 0.676,0.465 0.964,0.407 1.244,0.08 1.327,-0.173 0.558,-0.226 0.583,-0.262 0.432,-0.29 -0.246,-0.146 -0.856,0.373 -0.75,0.255 -1.089,0.113 -0.815,-0.064 -0.783,-0.218 -0.998,-0.456 z m 1.644,-0.951 0.238,-0.135 0.475,0.14 0.516,0.07 0.531,-0.064 0.563,-0.11 0.2,0.117 -0.39,0.135 -0.551,0.106 -0.48,0.014 -0.596,-0.081 z"
       style="fill:#eca845;fill-opacity:0.572;stroke:none;stroke-width:0.405489;stroke-linecap:round;stroke-linejoin:round;stroke-dasharray:none;stroke-opacity:1;paint-order:normal;filter:url(#a)"
       id="path19"
       transform="matrix(11.47932,0,0,11.47932,-1177.506,-1186.007)" /><path
       d="m 116.584,113.177 -0.267,-0.157 -0.61,0.22 -0.668,0.17 -0.803,0.091 -0.82,-0.043 -1.148,-0.336 -0.187,0.107 0.32,0.14 0.512,0.222 0.583,0.135 0.697,0.028 0.678,-0.043 0.674,-0.13 0.366,-0.118 z"
       style="fill:#eca845;fill-opacity:0.572;stroke:none;stroke-width:0.405489;stroke-linecap:round;stroke-linejoin:round;stroke-dasharray:none;stroke-opacity:1;paint-order:normal;filter:url(#a)"
       id="path20"
       transform="matrix(11.47932,0,0,11.47932,-1177.506,-1186.007)" /><path
       d="m 108.145,109.496 0.003,0.55 0.119,0.419 0.316,0.534 0.522,0.514 0.715,0.453 -0.222,0.126 -0.802,-0.516 -0.518,-0.439 -0.264,-0.372 -0.218,-0.482 -0.152,-0.494 z"
       style="fill:#eca845;fill-opacity:0.572;stroke:none;stroke-width:0.473401;stroke-linecap:round;stroke-linejoin:round;stroke-dasharray:none;stroke-opacity:1;paint-order:normal;filter:url(#a)"
       id="path21"
       transform="matrix(11.47932,0,0,11.47932,-1177.506,-1186.007)" /><path
       d="m 110.393,111.635 -0.221,0.127 -0.918,-0.617 -0.324,-0.314 -0.175,-0.437 -0.01,-0.172 0.2,0.285 0.29,0.293 0.383,0.266 z"
       style="fill:#eca845;fill-opacity:0.572;stroke:none;stroke-width:0.430058;stroke-linecap:round;stroke-linejoin:round;stroke-dasharray:none;stroke-opacity:1;paint-order:normal;filter:url(#a)"
       id="path22"
       transform="matrix(11.47932,0,0,11.47932,-1177.506,-1186.007)" /><path
       d="m 106.681,110.354 0.22,0.655 0.416,0.532 0.486,0.281 0.788,0.455 0.578,0.049 -0.827,-0.584 -0.506,-0.312 -0.218,-0.234 -0.217,-0.371 -0.281,-0.733 z"
       style="fill:#eca845;fill-opacity:0.572;stroke:none;stroke-width:0.473401;stroke-linecap:round;stroke-linejoin:round;stroke-dasharray:none;stroke-opacity:1;paint-order:normal;filter:url(#a)"
       id="path23"
       transform="matrix(11.47932,0,0,11.47932,-1177.506,-1186.007)" /><path
       d="m 112.914,106.748 0.877,-0.036 0.94,0.004 0.997,0.111 0.493,0.137 -0.726,-0.415 -1.107,-0.091 -1.085,0.062 z"
       style="fill:#eca845;fill-opacity:0.572;stroke:none;stroke-width:0.533219;stroke-linecap:round;stroke-linejoin:round;stroke-dasharray:none;stroke-opacity:1;paint-order:normal;filter:url(#a)"
       id="path24"
       transform="matrix(11.47932,0,0,11.47932,-1177.506,-1186.007)" /><path
       d="m 112.358,107.616 0.59,-0.158 0.783,-0.097 0.654,-0.012 0.924,0.13 0.748,0.14 0.286,0.072 0.19,-0.151 -0.914,-0.29 -1,-0.117 -1.006,-0.008 -0.738,0.098 -0.724,0.238 z"
       style="fill:#eca845;fill-opacity:0.572;stroke:none;stroke-width:0.46898;stroke-linecap:round;stroke-linejoin:round;stroke-dasharray:none;stroke-opacity:1;paint-order:normal;filter:url(#a)"
       id="path25"
       transform="matrix(11.47932,0,0,11.47932,-1177.506,-1186.007)" /><path
       d="m 113.104,108.309 0.603,-0.108 0.711,-0.025 0.806,0.096 0.423,0.085 0.25,-0.254 -0.817,-0.187 -0.51,-0.068 -0.55,0.012 -1.214,0.153 z m 7.63,1.259 -0.025,0.467 -0.074,0.517 -0.199,0.443 -0.467,0.529 -0.752,0.574 0.322,0.186 0.397,-0.285 0.459,-0.327 0.418,-0.458 0.326,-0.538 0.103,-0.417 0.004,-0.38 z m 0.993,0.579 0.5,0.287 -0.021,0.217 -0.124,0.372 -0.284,0.31 -0.848,0.49 0.26,-0.374 0.26,-0.397 0.207,-0.45 z"
       style="fill:#eca845;fill-opacity:0.572;stroke:none;stroke-width:0.495001;stroke-linecap:round;stroke-linejoin:round;stroke-dasharray:none;stroke-opacity:1;paint-order:normal;filter:url(#a)"
       id="path26"
       transform="matrix(11.47932,0,0,11.47932,-1177.506,-1186.007)" /><path
       d="m 119.526,110.814 0.283,-0.254 0.28,-0.348 -0.034,0.377 -0.19,0.433 -0.445,0.5 -0.526,0.4 -0.22,-0.143 0.44,-0.372 0.18,-0.286 0.091,-0.216 z"
       style="fill:#eca845;fill-opacity:0.572;stroke-width:0.495001;stroke-linecap:round;stroke-linejoin:round;filter:url(#a)"
       id="path27"
       transform="matrix(11.47932,0,0,11.47932,-1177.506,-1186.007)" /></g></svg>
